<svg width="900" height="1000" xmlns="http://www.w3.org/2000/svg">
  <!-- 背景 -->
  <rect width="900" height="1000" fill="#f8f9fa" />
  
  <!-- 标题 -->
  <text x="450" y="40" font-family="Arial" font-size="24" font-weight="bold" text-anchor="middle">QTeamOS 系统初始化流程图</text>
  
  <!-- 事件总线 -->
  <rect x="50" y="60" width="800" height="50" rx="10" ry="10" fill="#ffe8cc" stroke="#ed8936" stroke-width="2" />
  <text x="450" y="92" font-family="Arial" font-size="18" font-weight="bold" text-anchor="middle" fill="#c05621">事件总线 (EventBus)</text>

  <!-- 阶段分组 -->
  <rect x="50" y="130" width="800" height="160" rx="10" ry="10" fill="#e9ecef" stroke="#ced4da" stroke-width="1" />
  <text x="450" y="150" font-family="Arial" font-size="16" font-weight="bold" text-anchor="middle">系统引导阶段</text>
  
  <rect x="50" y="310" width="800" height="180" rx="10" ry="10" fill="#e9ecef" stroke="#ced4da" stroke-width="1" />
  <text x="450" y="330" font-family="Arial" font-size="16" font-weight="bold" text-anchor="middle">核心服务初始化阶段</text>
  
  <rect x="50" y="510" width="800" height="220" rx="10" ry="10" fill="#e9ecef" stroke="#ced4da" stroke-width="1" />
  <text x="450" y="530" font-family="Arial" font-size="16" font-weight="bold" text-anchor="middle">插件系统阶段</text>
  
  <rect x="50" y="750" width="800" height="160" rx="10" ry="10" fill="#e9ecef" stroke="#ced4da" stroke-width="1" />
  <text x="450" y="770" font-family="Arial" font-size="16" font-weight="bold" text-anchor="middle">系统就绪阶段</text>
  
  <!-- 流程图节点和连线 -->
  <!-- 系统引导阶段 -->
  <rect x="100" y="170" width="180" height="60" rx="5" ry="5" fill="#dee2e6" stroke="#adb5bd" stroke-width="2" />
  <text x="190" y="208" font-family="Arial" font-size="14" text-anchor="middle">QteamosApplication.main()</text>
  
  <rect x="360" y="170" width="180" height="60" rx="5" ry="5" fill="#dee2e6" stroke="#adb5bd" stroke-width="2" />
  <text x="450" y="208" font-family="Arial" font-size="14" text-anchor="middle">Spring容器初始化</text>
  
  <rect x="620" y="170" width="180" height="60" rx="5" ry="5" fill="#dee2e6" stroke="#adb5bd" stroke-width="2" />
  <text x="710" y="208" font-family="Arial" font-size="14" text-anchor="middle">显示版权信息</text>
  
  <!-- 连线 -->
  <line x1="280" y1="200" x2="360" y2="200" stroke="#6c757d" stroke-width="2" />
  <polygon points="350,195 360,200 350,205" fill="#6c757d" stroke="#6c757d" stroke-width="2" />
  
  <line x1="540" y1="200" x2="620" y2="200" stroke="#6c757d" stroke-width="2" />
  <polygon points="610,195 620,200 610,205" fill="#6c757d" stroke="#6c757d" stroke-width="2" />

  <!-- 核心服务初始化阶段 -->
  <rect x="100" y="370" width="180" height="60" rx="5" ry="5" fill="#dee2e6" stroke="#adb5bd" stroke-width="2" />
  <text x="190" y="408" font-family="Arial" font-size="14" text-anchor="middle">数据源服务初始化</text>
  
  <rect x="360" y="370" width="180" height="60" rx="5" ry="5" fill="#dee2e6" stroke="#adb5bd" stroke-width="2" />
  <text x="450" y="408" font-family="Arial" font-size="14" text-anchor="middle">缓存服务初始化</text>
  
  <rect x="620" y="370" width="180" height="60" rx="5" ry="5" fill="#dee2e6" stroke="#adb5bd" stroke-width="2" />
  <text x="710" y="408" font-family="Arial" font-size="14" text-anchor="middle">安全服务初始化</text>
  
  <!-- 连线 -->
  <line x1="710" y1="230" x2="710" y2="300" stroke="#6c757d" stroke-width="2" />
  <line x1="710" y1="300" x2="190" y2="300" stroke="#6c757d" stroke-width="2" />
  <line x1="190" y1="300" x2="190" y2="370" stroke="#6c757d" stroke-width="2" />
  <polygon points="185,360 190,370 195,360" fill="#6c757d" stroke="#6c757d" stroke-width="2" />
  
  <line x1="280" y1="400" x2="360" y2="400" stroke="#6c757d" stroke-width="2" />
  <polygon points="350,395 360,400 350,405" fill="#6c757d" stroke="#6c757d" stroke-width="2" />
  
  <line x1="540" y1="400" x2="620" y2="400" stroke="#6c757d" stroke-width="2" />
  <polygon points="610,395 620,400 610,405" fill="#6c757d" stroke="#6c757d" stroke-width="2" />

  <!-- 插件系统阶段 -->
  <rect x="230" y="570" width="180" height="60" rx="5" ry="5" fill="#bee3f8" stroke="#3182ce" stroke-width="2" />
  <text x="320" y="608" font-family="Arial" font-size="14" text-anchor="middle">PluginSystem.init()</text>
  <text x="320" y="590" font-family="Arial" font-size="12" text-anchor="middle" fill="#3182ce">@PostConstruct自动调用</text>
  
  <rect x="100" y="650" width="180" height="60" rx="5" ry="5" fill="#bee3f8" stroke="#3182ce" stroke-width="2" />
  <text x="190" y="688" font-family="Arial" font-size="14" text-anchor="middle">扫描插件目录</text>
  
  <rect x="360" y="650" width="180" height="60" rx="5" ry="5" fill="#bee3f8" stroke="#3182ce" stroke-width="2" />
  <text x="450" y="688" font-family="Arial" font-size="14" text-anchor="middle">加载插件</text>
  
  <rect x="620" y="650" width="180" height="60" rx="5" ry="5" fill="#bee3f8" stroke="#3182ce" stroke-width="2" />
  <text x="710" y="688" font-family="Arial" font-size="14" text-anchor="middle">启动插件</text>

  <!-- 连线 -->
  <line x1="710" y1="430" x2="710" y2="480" stroke="#6c757d" stroke-width="2" />
  <line x1="710" y1="480" x2="320" y2="480" stroke="#6c757d" stroke-width="2" />
  <line x1="320" y1="480" x2="320" y2="570" stroke="#6c757d" stroke-width="2" />
  <polygon points="315,560 320,570 325,560" fill="#6c757d" stroke="#6c757d" stroke-width="2" />
  
  <line x1="320" y1="630" x2="320" y2="650" stroke="#6c757d" stroke-width="2" />
  <line x1="320" y1="650" x2="190" y2="650" stroke="#6c757d" stroke-width="2" />
  <polygon points="200,645 190,650 200,655" fill="#6c757d" stroke="#6c757d" stroke-width="2" />
  
  <line x1="280" y1="680" x2="360" y2="680" stroke="#6c757d" stroke-width="2" />
  <polygon points="350,675 360,680 350,685" fill="#6c757d" stroke="#6c757d" stroke-width="2" />
  
  <line x1="540" y1="680" x2="620" y2="680" stroke="#6c757d" stroke-width="2" />
  <polygon points="610,675 620,680 610,685" fill="#6c757d" stroke="#6c757d" stroke-width="2" />

  <!-- 系统就绪阶段 -->
  <rect x="100" y="810" width="180" height="60" rx="5" ry="5" fill="#d9f99d" stroke="#65a30d" stroke-width="2" />
  <text x="190" y="848" font-family="Arial" font-size="14" text-anchor="middle">健康检查启动</text>
  
  <rect x="360" y="810" width="180" height="60" rx="5" ry="5" fill="#d9f99d" stroke="#65a30d" stroke-width="2" />
  <text x="450" y="828" font-family="Arial" font-size="14" text-anchor="middle">API</text>
  <text x="450" y="848" font-family="Arial" font-size="14" text-anchor="middle">网关启动</text>
  
  <rect x="620" y="810" width="180" height="60" rx="5" ry="5" fill="#d9f99d" stroke="#65a30d" stroke-width="2" />
  <text x="710" y="848" font-family="Arial" font-size="14" text-anchor="middle">系统就绪</text>

  <!-- 连线 -->
  <line x1="710" y1="710" x2="710" y2="740" stroke="#6c757d" stroke-width="2" />
  <line x1="710" y1="740" x2="190" y2="740" stroke="#6c757d" stroke-width="2" />
  <line x1="190" y1="740" x2="190" y2="810" stroke="#6c757d" stroke-width="2" />
  <polygon points="185,800 190,810 195,800" fill="#6c757d" stroke="#6c757d" stroke-width="2" />
  
  <line x1="280" y1="840" x2="360" y2="840" stroke="#6c757d" stroke-width="2" />
  <polygon points="350,835 360,840 350,845" fill="#6c757d" stroke="#6c757d" stroke-width="2" />
  
  <line x1="540" y1="840" x2="620" y2="840" stroke="#6c757d" stroke-width="2" />
  <polygon points="610,835 620,840 610,845" fill="#6c757d" stroke="#6c757d" stroke-width="2" />
  
  <!-- 事件流 -->
  <!-- 从Spring容器到事件总线的绑定 -->
  <line x1="450" y1="170" x2="450" y2="110" stroke="#ed8936" stroke-width="2" stroke-dasharray="5,5" />
  <polygon points="445,120 450,110 455,120" fill="#ed8936" stroke="#ed8936" stroke-width="2" />
  
  <!-- 系统启动事件 -->
  <line x1="250" y1="110" x2="150" y2="110" stroke="#ed8936" stroke-width="2" />
  <polygon points="160,105 150,110 160,115" fill="#ed8936" stroke="#ed8936" stroke-width="2" />
  <text x="200" y="100" font-family="Arial" font-size="10" fill="#c05621">SystemStartupEvent</text>
  
  <!-- 插件事件 -->
  <line x1="320" y1="570" x2="320" y2="110" stroke="#ed8936" stroke-width="2" stroke-dasharray="5,5" />
  <polygon points="315,120 320,110 325,120" fill="#ed8936" stroke="#ed8936" stroke-width="2" />
  
  <line x1="450" y1="110" x2="550" y2="110" stroke="#ed8936" stroke-width="2" />
  <polygon points="540,105 550,110 540,115" fill="#ed8936" stroke="#ed8936" stroke-width="2" />
  <text x="500" y="100" font-family="Arial" font-size="10" fill="#c05621">PluginEvent</text>
  
  <!-- 系统就绪事件 -->
  <line x1="710" y1="810" x2="710" y2="110" stroke="#ed8936" stroke-width="2" stroke-dasharray="5,5" />
  <polygon points="705,120 710,110 715,120" fill="#ed8936" stroke="#ed8936" stroke-width="2" />
  
  <line x1="650" y1="110" x2="750" y2="110" stroke="#ed8936" stroke-width="2" />
  <polygon points="740,105 750,110 740,115" fill="#ed8936" stroke="#ed8936" stroke-width="2" />
  <text x="700" y="100" font-family="Arial" font-size="10" fill="#c05621">SystemReadyEvent</text>
  
  <!-- 标注说明 -->
  <rect x="70" y="900" width="15" height="15" fill="#dee2e6" stroke="#adb5bd" stroke-width="2" />
  <text x="95" y="913" font-family="Arial" font-size="12">Spring管理的组件</text>
  
  <rect x="220" y="900" width="15" height="15" fill="#bee3f8" stroke="#3182ce" stroke-width="2" />
  <text x="245" y="913" font-family="Arial" font-size="12">插件系统组件</text>
  
  <rect x="380" y="900" width="15" height="15" fill="#d9f99d" stroke="#65a30d" stroke-width="2" />
  <text x="405" y="913" font-family="Arial" font-size="12">就绪阶段组件</text>
  
  <rect x="530" y="900" width="15" height="15" fill="#ffe8cc" stroke="#ed8936" stroke-width="2" />
  <text x="555" y="913" font-family="Arial" font-size="12">事件机制</text>
  
  <line x1="650" y1="910" x2="680" y2="910" stroke="#ed8936" stroke-width="2" stroke-dasharray="5,5" />
  <text x="700" y="913" font-family="Arial" font-size="12">事件发布</text>
  
  <text x="700" y="940" font-family="Arial" font-size="10" fill="#6c757d">已实现的组件无需重复开发</text>
  
</svg>